<?xml version="1.0" standalone="no"?>
<!DOCTYPE svg PUBLIC "-//W3C//DTD SVG 20010904//EN"
 "http://www.w3.org/TR/2001/REC-SVG-20010904/DTD/svg10.dtd">
<svg version="1.0" xmlns="http://www.w3.org/2000/svg"
 width="512.000000pt" height="512.000000pt" viewBox="0 0 512.000000 512.000000"
 preserveAspectRatio="xMidYMid meet">
<metadata>
Created by potrace 1.16, written by Peter Selinger 2001-2019
</metadata>
<g transform="translate(0.000000,512.000000) scale(0.100000,-0.100000)"
fill="#000000" stroke="none">
<path d="M0 2560 l0 -2560 2560 0 2560 0 0 2560 0 2560 -2560 0 -2560 0 0
-2560z m2495 2027 c11 -2 42 -8 68 -11 27 -4 57 -9 68 -12 10 -2 29 -6 42 -9
22 -5 77 -18 102 -24 3 0 7 -1 10 -1 3 0 21 -6 40 -14 19 -8 35 -13 35 -10 0
3 6 2 13 -3 6 -4 14 -8 17 -8 34 -5 70 -19 70 -26 0 -6 5 -7 10 -4 6 3 10 2
10 -4 0 -6 7 -8 15 -5 8 4 15 1 15 -6 0 -6 5 -8 10 -5 6 3 10 1 10 -5 0 -6 5
-8 10 -5 6 3 10 2 10 -4 0 -6 7 -8 15 -5 8 4 15 1 15 -6 0 -6 5 -8 10 -5 6 3
10 1 10 -5 0 -6 5 -8 10 -5 6 3 10 1 10 -5 0 -6 5 -8 10 -5 6 3 10 1 10 -5 0
-6 5 -8 12 -4 7 5 8 3 3 -6 -5 -8 -3 -11 6 -8 18 7 69 -19 69 -34 0 -6 3 -8 7
-5 3 4 12 -1 20 -11 8 -9 12 -11 8 -4 -11 21 5 13 32 -15 15 -16 23 -21 19
-13 -4 8 2 4 14 -10 12 -14 18 -19 14 -11 -9 18 2 12 83 -47 54 -39 61 -48 58
-73 -4 -31 -119 -209 -136 -209 -6 0 -8 -4 -5 -9 3 -5 -1 -14 -9 -21 -8 -7
-15 -9 -15 -4 0 5 -4 3 -9 -5 -8 -12 -12 -12 -25 -2 -9 8 -16 10 -16 5 -1 -5
-9 1 -19 13 -10 12 -21 20 -24 17 -3 -3 -22 12 -43 33 -21 21 -34 31 -29 23
12 -19 -44 15 -62 38 -7 9 -13 12 -13 7 0 -5 -7 0 -16 11 -8 10 -12 13 -9 6 6
-11 3 -12 -14 -3 -11 7 -21 16 -21 21 0 5 -7 7 -15 4 -8 -4 -17 1 -21 10 -3 9
-10 13 -15 10 -5 -3 -9 -1 -9 5 0 6 -7 7 -17 4 -11 -4 -14 -3 -9 5 4 8 2 10
-7 6 -8 -3 -21 2 -30 10 -8 8 -17 12 -21 9 -3 -4 -6 -1 -6 6 0 7 -4 9 -10 6
-5 -3 -20 0 -32 7 -13 6 -31 13 -41 15 -10 2 -31 10 -48 18 -16 9 -29 13 -29
10 0 -4 -6 -3 -12 2 -7 4 -17 8 -23 9 -9 2 -23 5 -87 19 -126 27 -192 34 -357
34 -102 1 -211 -3 -241 -8 -132 -24 -150 -29 -199 -45 -22 -9 -41 -13 -41 -10
0 2 -16 -2 -35 -10 -19 -8 -35 -13 -35 -10 0 2 -11 -3 -25 -12 -13 -8 -29 -13
-35 -9 -5 3 -10 1 -10 -5 0 -6 -4 -8 -10 -5 -5 3 -10 1 -10 -5 0 -6 -4 -9 -9
-5 -5 3 -12 1 -16 -5 -4 -6 -11 -8 -16 -5 -5 4 -9 1 -9 -5 0 -6 -4 -8 -10 -5
-5 3 -10 1 -10 -5 0 -6 -4 -8 -10 -5 -5 3 -10 1 -10 -5 0 -7 -7 -9 -16 -6 -8
3 -13 2 -10 -2 3 -5 -11 -16 -30 -26 -24 -11 -33 -12 -29 -4 4 7 0 5 -8 -4 -8
-10 -17 -15 -20 -11 -4 3 -7 1 -7 -5 0 -6 -10 -16 -21 -23 -17 -9 -20 -8 -14
3 4 7 -3 2 -15 -12 -12 -14 -19 -18 -15 -10 4 8 -3 4 -15 -10 -12 -14 -18 -18
-14 -10 5 8 -9 -2 -29 -23 -21 -21 -42 -35 -48 -32 -5 4 -9 2 -9 -2 0 -5 -42
-45 -93 -89 -99 -86 -220 -224 -294 -335 -25 -38 -51 -69 -56 -69 -6 0 -7 -3
-4 -6 8 -8 -43 -104 -55 -104 -10 0 -10 3 -2 24 3 9 11 13 17 9 5 -3 7 -1 4 5
-8 12 2 44 12 38 4 -3 7 4 7 15 0 10 -2 19 -3 19 -11 0 -112 -225 -143 -319
-72 -215 -84 -296 -84 -551 0 -255 12 -336 84 -551 31 -94 132 -319 143 -319
1 0 3 9 3 19 0 11 -3 18 -7 15 -10 -6 -20 26 -12 38 3 7 1 8 -5 4 -7 -4 -12
-5 -12 -2 0 2 -3 11 -6 20 -3 9 -2 16 3 16 13 0 64 -95 56 -104 -3 -3 -2 -6 4
-6 5 0 31 -31 56 -69 74 -111 195 -249 294 -335 51 -44 93 -84 93 -89 0 -4 4
-6 9 -2 6 3 27 -11 48 -32 20 -21 34 -31 29 -23 -4 8 2 4 14 -10 12 -14 19
-18 15 -10 -4 8 3 4 15 -10 12 -14 19 -19 15 -12 -6 11 -3 12 14 3 11 -7 21
-17 21 -23 0 -6 3 -8 7 -5 3 4 12 -1 20 -11 8 -9 12 -11 8 -4 -4 8 5 7 29 -4
19 -10 33 -21 30 -26 -3 -4 2 -5 10 -2 9 3 16 1 16 -6 0 -6 5 -8 10 -5 6 3 10
1 10 -5 0 -6 5 -8 10 -5 6 3 10 1 10 -5 0 -6 4 -9 9 -5 5 3 12 1 16 -5 4 -6
11 -8 16 -5 5 4 9 1 9 -5 0 -6 5 -8 10 -5 6 3 10 1 10 -5 0 -6 5 -8 10 -5 6 4
22 -1 35 -9 14 -9 25 -14 25 -12 0 3 16 -2 35 -10 19 -8 35 -12 35 -10 0 3 19
-1 41 -10 48 -16 70 -21 199 -45 30 -5 139 -9 241 -8 165 0 231 7 357 34 12 3
34 8 50 11 45 10 57 12 60 13 1 1 4 1 7 1 3 0 18 6 35 15 16 8 37 16 47 18 10
2 28 9 41 15 12 7 27 10 32 7 6 -3 10 -1 10 6 0 7 3 10 6 6 4 -3 13 1 21 9 9
8 22 13 30 10 9 -4 11 -2 7 6 -5 8 -2 9 9 5 10 -3 17 -2 17 4 0 6 5 7 10 4 6
-3 10 -1 10 5 0 6 5 8 10 5 6 -3 10 -1 10 5 0 6 5 8 10 5 6 -3 10 -2 10 4 0 6
10 15 21 22 17 9 20 8 14 -3 -3 -7 1 -4 9 6 9 11 16 16 16 11 0 -5 6 -2 13 7
18 23 74 57 62 38 -5 -8 8 2 29 23 21 21 40 37 42 34 10 -10 256 226 330 317
30 36 43 46 49 36 5 -9 4 -11 -3 -6 -7 4 -12 5 -12 2 0 -18 22 -12 39 12 15
22 17 29 6 29 -8 0 -11 -5 -8 -10 3 -6 1 -7 -5 -3 -8 5 -10 1 -6 -11 5 -14 4
-15 -4 -4 -7 10 4 35 43 95 29 44 72 119 95 166 42 83 116 272 124 314 2 12 9
39 14 61 56 208 56 542 0 750 -5 22 -12 49 -14 61 -2 11 -22 70 -45 130 -67
177 -69 183 -62 201 8 24 195 213 204 207 4 -2 10 0 14 6 10 16 25 11 25 -9 0
-10 21 -63 46 -117 217 -464 249 -994 88 -1482 -49 -151 -126 -316 -207 -443
-37 -60 -49 -86 -38 -84 9 1 16 10 16 21 0 10 5 18 11 17 7 -1 11 5 10 15 0 9
4 16 11 15 8 -2 10 4 6 14 -4 10 -2 14 4 10 6 -4 10 1 9 11 0 9 4 16 11 15 8
-2 10 4 6 14 -5 12 -3 14 7 8 9 -5 11 -4 6 3 -9 15 24 73 37 65 6 -3 7 -1 4 5
-10 15 3 43 16 35 5 -3 7 -1 4 4 -4 6 11 51 32 101 220 506 222 1087 6 1593
-19 44 -32 86 -28 91 4 7 1 8 -7 3 -10 -6 -12 -4 -7 9 4 9 3 15 -2 12 -11 -7
-23 22 -14 36 3 7 1 8 -5 4 -7 -4 -10 1 -9 14 1 11 3 20 5 20 5 0 73 -150 105
-230 28 -70 74 -224 82 -274 3 -17 8 -38 10 -46 2 -8 7 -28 10 -45 2 -16 7
-41 10 -55 22 -107 30 -533 10 -593 -2 -7 -6 -30 -9 -52 -6 -47 -15 -94 -21
-115 -2 -8 -7 -29 -10 -46 -22 -134 -166 -504 -195 -504 -6 0 -9 -4 -6 -9 7
-11 -87 -162 -162 -260 -117 -153 -358 -386 -389 -374 -11 4 -11 8 -1 22 12
14 11 15 -5 2 -9 -8 -15 -16 -12 -19 3 -3 -1 -12 -8 -21 -10 -13 -10 -14 3 -6
9 6 2 -2 -15 -17 -42 -37 -90 -65 -81 -47 4 8 -2 3 -14 -11 -12 -14 -18 -18
-14 -10 4 8 -4 3 -19 -12 -27 -29 -43 -37 -32 -15 4 6 0 4 -8 -5 -8 -10 -17
-15 -20 -11 -4 3 -7 1 -7 -5 0 -6 -14 -19 -31 -28 -23 -11 -29 -12 -24 -2 3 7
0 5 -8 -4 -8 -10 -17 -15 -20 -11 -4 3 -7 1 -7 -6 0 -7 -4 -9 -10 -6 -5 3 -10
1 -10 -5 0 -6 -4 -8 -10 -5 -5 3 -10 1 -10 -5 0 -6 -4 -8 -10 -5 -5 3 -10 1
-10 -5 0 -7 -7 -10 -15 -6 -8 3 -15 1 -15 -5 0 -6 -4 -7 -10 -4 -5 3 -10 1
-10 -5 0 -6 -4 -8 -10 -5 -5 3 -10 1 -10 -5 0 -7 -7 -10 -15 -6 -8 3 -15 1
-15 -5 0 -6 -4 -7 -10 -4 -5 3 -10 1 -10 -6 0 -7 -3 -9 -7 -6 -3 4 -11 2 -18
-3 -6 -5 -22 -12 -36 -14 -13 -3 -25 -5 -26 -5 -2 -1 -5 -1 -8 -1 -2 -1 -20
-7 -40 -16 -19 -8 -35 -11 -35 -8 0 4 -7 0 -17 -7 -9 -8 -18 -13 -20 -11 -2 2
-16 1 -31 -2 -15 -4 -37 -9 -49 -11 -13 -3 -32 -7 -42 -9 -11 -3 -41 -8 -68
-12 -26 -3 -57 -9 -68 -11 -11 -3 -104 -7 -207 -10 -206 -6 -310 2 -503 41
-17 4 -78 18 -125 30 -8 3 -27 9 -41 14 -15 6 -30 8 -33 5 -3 -4 -6 -1 -6 6 0
7 -4 10 -8 7 -5 -3 -20 1 -35 9 -14 7 -28 11 -31 7 -3 -3 -6 0 -6 6 0 6 -7 9
-15 6 -8 -4 -15 -1 -15 6 0 6 -4 9 -9 5 -5 -3 -12 -1 -16 5 -4 6 -11 8 -16 5
-5 -4 -9 -1 -9 5 0 6 -5 8 -10 5 -6 -3 -10 -1 -10 5 0 6 -4 8 -10 5 -5 -3 -10
-1 -10 5 0 6 -4 8 -10 5 -5 -3 -10 -1 -10 5 0 6 -4 8 -10 5 -5 -3 -10 -2 -10
4 0 6 -6 8 -14 5 -8 -3 -23 3 -34 14 -11 11 -23 17 -27 14 -4 -4 -13 2 -21 12
-8 11 -14 16 -14 11 0 -5 -7 0 -16 11 -8 10 -13 13 -9 7 11 -22 -5 -14 -32 14
-15 16 -23 22 -18 14 12 -21 -43 14 -163 104 -251 187 -465 446 -602 730 -57
117 -125 295 -113 295 3 0 1 6 -4 13 -6 6 -14 30 -18 52 -10 51 -11 53 -23
100 -6 22 -13 58 -17 80 -3 22 -10 67 -15 100 -13 78 -13 452 0 530 5 33 12
78 15 100 4 22 11 58 17 80 6 22 12 54 15 70 10 65 87 276 142 390 140 285
352 543 603 730 120 90 175 125 163 104 -5 -8 3 -2 18 14 27 28 43 36 32 15
-4 -7 1 -4 9 6 9 11 16 16 16 11 0 -5 6 0 14 11 8 10 17 16 21 12 4 -3 16 3
27 14 11 11 26 17 34 14 8 -3 14 -1 14 5 0 6 5 7 10 4 6 -3 10 -1 10 5 0 6 5
8 10 5 6 -3 10 -1 10 5 0 6 5 8 10 5 6 -3 10 -1 10 5 0 6 5 8 10 5 6 -3 10 -1
10 4 0 6 3 10 8 9 4 -1 17 3 30 10 12 7 27 10 32 7 6 -3 10 -1 10 6 0 7 3 10
6 7 3 -4 17 0 31 7 15 8 30 12 35 9 4 -3 8 0 8 7 0 7 3 10 6 6 3 -3 18 -1 33
5 14 5 33 11 41 14 57 14 109 26 130 30 14 3 44 9 66 14 23 5 73 13 110 16 38
4 71 9 74 11 6 6 427 -3 455 -10z m2433 -84 c0 -51 -3 -93 -6 -93 -4 0 -5 39
-4 88 2 48 2 85 -1 82 -3 -3 -7 -39 -8 -80 -2 -82 -7 -103 -20 -94 -5 3 -9 0
-9 -6 0 -6 -4 -8 -10 -5 -5 3 -10 1 -10 -5 0 -6 -4 -8 -10 -5 -5 3 -10 2 -10
-4 0 -14 -52 -39 -69 -33 -9 3 -11 0 -6 -8 5 -9 4 -11 -3 -6 -7 4 -12 3 -12
-3 0 -6 -14 -18 -31 -27 -23 -11 -29 -12 -24 -2 4 7 -2 3 -12 -8 -25 -30 -80
-64 -69 -44 4 8 -1 5 -11 -6 -25 -29 -169 -124 -177 -117 -3 4 -6 2 -6 -4 0
-6 -43 -43 -96 -82 -417 -314 -836 -750 -1165 -1212 -50 -71 -95 -129 -100
-129 -5 0 -8 -3 -7 -7 4 -11 -42 -83 -51 -83 -4 0 -8 -6 -8 -12 0 -7 -26 -53
-57 -103 -32 -49 -80 -129 -108 -177 -28 -49 -54 -88 -58 -88 -3 0 -7 -6 -7
-12 0 -20 -104 -208 -114 -208 -11 0 -11 3 -3 24 3 9 11 13 17 9 5 -3 7 -1 4
5 -10 15 3 43 16 35 6 -3 7 -1 3 5 -10 16 22 74 36 66 6 -4 8 -3 5 4 -10 15 3
43 16 35 6 -3 7 -1 3 5 -9 15 12 54 24 47 6 -4 7 1 3 11 -5 13 -3 15 7 9 9 -5
11 -4 6 3 -9 15 12 54 24 47 6 -4 7 1 3 11 -4 12 -3 15 5 10 8 -5 10 -1 5 10
-4 11 -3 15 5 10 6 -3 14 -1 18 5 5 8 3 9 -6 4 -8 -5 -11 -3 -8 6 3 8 10 13
16 12 7 -2 9 4 5 14 -4 10 -2 14 5 9 6 -3 14 -1 18 5 5 8 3 9 -6 4 -8 -5 -11
-3 -8 6 3 8 10 13 15 12 5 -1 9 7 9 18 0 19 -1 20 -14 2 -89 -120 -503 -942
-502 -997 0 -6 26 46 56 116 31 70 60 125 65 123 4 -3 -5 -36 -21 -73 -73
-171 -89 -206 -90 -192 0 12 -3 11 -11 -3 -9 -15 -13 -16 -26 -5 -9 7 -18 12
-20 10 -8 -6 -1192 1331 -1187 1339 2 4 0 10 -6 14 -6 4 -8 11 -5 16 12 18 22
9 20 -16 -2 -16 1 -23 7 -19 7 5 8 2 3 -6 -6 -9 -4 -11 5 -5 9 6 11 4 5 -5 -5
-9 -4 -11 4 -6 6 4 10 4 9 -1 -2 -4 0 -8 4 -8 3 0 19 -11 35 -25 15 -13 6 -1
-21 27 -44 47 -48 54 -35 69 9 12 10 15 1 10 -26 -16 -11 24 18 44 17 12 30
18 30 14 0 -4 6 0 13 9 21 29 231 175 244 170 7 -3 10 -10 6 -17 -3 -6 -2 -7
3 -3 5 5 9 12 9 15 0 4 4 14 10 22 7 12 6 13 -6 5 -8 -5 -4 0 10 12 14 12 27
21 29 19 2 -2 13 6 26 19 15 15 33 22 54 21 30 -1 62 -35 366 -381 214 -245
339 -379 350 -379 9 1 15 -3 13 -10 -3 -6 -11 -9 -18 -7 -8 2 -19 4 -25 5 -7
1 -20 8 -30 16 -11 8 -3 -3 16 -23 32 -35 36 -37 48 -20 31 41 33 52 12 48
-24 -5 -29 -14 70 135 208 312 484 650 765 939 187 192 523 490 546 484 5 -2
9 1 9 7 0 10 129 111 142 111 4 0 21 13 38 29 28 27 69 32 53 7 -3 -6 -1 -7 6
-3 9 6 9 11 0 22 -10 12 -7 19 6 12 2 -2 11 6 20 17 9 11 14 13 10 5 -4 -8 3
-4 15 10 12 14 19 18 15 10 -3 -8 1 -5 10 7 17 22 51 21 38 -1 -3 -6 -2 -7 2
-3 14 12 15 38 2 31 -33 -19 14 17 57 44 47 29 83 33 69 8 -3 -6 -2 -7 2 -3
12 10 15 38 4 31 -5 -3 -9 -3 -9 0 0 3 14 13 31 22 23 11 29 12 24 2 -3 -7 0
-5 8 4 8 10 17 15 20 11 4 -3 7 -1 7 5 0 6 18 21 41 33 26 13 39 16 34 7 -3
-7 0 -5 8 4 8 10 17 15 20 11 4 -3 7 -1 7 6 0 7 5 9 10 6 6 -3 10 -1 10 5 0 6
5 8 10 5 6 -3 10 -1 10 5 0 6 5 8 10 5 6 -3 10 -1 10 5 0 6 5 8 10 5 6 -3 10
-1 10 5 0 6 5 8 10 5 6 -3 10 -1 10 5 0 7 7 9 16 6 8 -3 13 -2 10 3 -7 11 22
23 35 15 5 -3 9 0 9 6 0 6 5 8 10 5 6 -3 10 -1 10 5 0 6 5 8 10 5 6 -3 10 -1
10 5 0 7 7 10 15 6 8 -3 15 -1 15 5 0 6 5 7 10 4 6 -3 10 -1 10 5 0 7 7 10 15
6 8 -3 15 -1 15 5 0 6 5 7 10 4 6 -3 10 -1 10 5 0 7 7 10 15 6 8 -3 15 -1 15
5 0 6 4 8 9 5 5 -4 11 -2 13 4 1 5 15 11 31 12 15 1 27 6 27 9 0 9 25 15 67
15 l31 1 0 -94z m-4235 -1215 c-5 -7 -24 -47 -40 -88 -43 -107 -46 -114 -49
-125 -1 -5 -9 -29 -18 -52 -8 -24 -13 -43 -11 -43 3 0 1 -10 -4 -23 -5 -13
-12 -39 -15 -58 -3 -19 -8 -45 -11 -59 -20 -93 -28 -288 -17 -408 6 -70 14
-138 17 -152 3 -14 8 -41 11 -60 3 -19 8 -38 10 -41 2 -3 5 -19 8 -35 7 -37
75 -223 105 -283 11 -25 17 -49 13 -53 -20 -20 -113 237 -154 423 -19 91 -22
133 -22 329 0 196 3 238 22 329 43 195 134 443 155 422 7 -7 7 -14 0 -23z"/>
<path d="M595 3760 c-4 -6 -10 -8 -15 -5 -5 3 -12 0 -16 -6 -5 -8 -3 -9 6 -4
8 5 11 3 8 -6 -3 -8 -11 -14 -19 -14 -8 0 -14 -9 -14 -20 0 -11 -5 -19 -12
-18 -7 2 -10 -4 -6 -13 3 -9 0 -14 -8 -12 -8 2 -13 -3 -11 -10 4 -20 -18 -53
-30 -46 -7 4 -8 3 -4 -4 10 -16 -12 -54 -26 -46 -6 4 -8 3 -5 -4 10 -15 -3
-43 -16 -35 -6 3 -7 1 -3 -5 4 -6 -9 -42 -27 -79 -199 -395 -251 -918 -138
-1364 33 -130 88 -283 138 -382 18 -37 31 -73 27 -79 -4 -6 -3 -8 3 -5 13 8
26 -20 16 -35 -3 -7 -1 -8 5 -4 14 8 36 -30 26 -46 -4 -7 -3 -8 4 -4 12 7 34
-26 30 -46 -2 -7 3 -12 11 -10 8 2 11 -3 8 -12 -4 -9 -1 -15 6 -13 7 1 12 -7
12 -18 0 -11 6 -20 14 -20 8 0 16 -6 19 -14 3 -9 0 -11 -9 -6 -11 6 -12 5 -2
-5 7 -8 19 -15 27 -16 7 -1 -15 40 -50 92 -447 669 -447 1559 1 2229 35 52 62
95 60 95 -2 0 -7 -5 -10 -10z"/>
<path d="M3874 3438 c-58 -59 -91 -101 -92 -116 0 -12 12 -53 28 -90 44 -104
96 -286 115 -402 25 -151 23 -409 -4 -561 -31 -176 -130 -467 -154 -452 -6 3
-7 1 -3 -5 10 -16 -42 -114 -56 -106 -7 4 -8 3 -4 -4 8 -13 -5 -43 -20 -45 -5
-1 -7 -8 -6 -16 2 -7 -1 -10 -7 -7 -5 4 -12 3 -15 -2 -3 -5 2 -9 10 -9 33 0
149 232 208 415 57 177 78 316 78 522 0 254 -34 425 -129 663 l-36 89 39 41
39 42 -37 -34 c-75 -69 -36 -14 54 76 51 51 90 93 88 93 -3 0 -46 -42 -96 -92z"/>
</g>
</svg>
